<svg xmlns="http://www.w3.org/2000/svg" viewBox="0 0 30 30">
  <path fill-rule="evenodd" d="M26.5384615,25.9615385 C26.5384615,26.28 26.28,26.5384615 25.9615385,26.5384615 L21.3461538,26.5384615 C21.0276923,26.5384615 20.7692308,26.28 20.7692308,25.9615385 L20.7692308,17.8846154 C20.7692308,16.9303846 19.9926923,16.1538462 19.0384615,16.1538462 C18.0842308,16.1538462 17.3076923,16.9303846 17.3076923,17.8846154 L17.3076923,25.9615385 C17.3076923,26.28 17.0492308,26.5384615 16.7307692,26.5384615 L12.1153846,26.5384615 C11.7969231,26.5384615 11.5384615,26.28 11.5384615,25.9615385 L11.5384615,12.1153846 C11.5384615,11.7969231 11.7969231,11.5384615 12.1153846,11.5384615 L16.7307692,11.5384615 C17.0492308,11.5384615 17.3076923,11.7969231 17.3076923,12.1153846 L17.3076923,12.7142308 C18.2988462,11.9561538 19.5057692,11.5384615 20.7692308,11.5384615 C23.9503846,11.5384615 26.5384615,14.1265385 26.5384615,17.3076923 L26.5384615,25.9615385 Z M7.5,10.3846154 C5.91,10.3846154 4.61538462,9.09 4.61538462,7.5 C4.61538462,5.91 5.91,4.61538462 7.5,4.61538462 C9.09,4.61538462 10.3846154,5.91 10.3846154,7.5 C10.3846154,9.09 9.09,10.3846154 7.5,10.3846154 Z M10.3846154,25.9615385 C10.3846154,26.28 10.1261538,26.5384615 9.80769231,26.5384615 L5.19230769,26.5384615 C4.87384615,26.5384615 4.61538462,26.28 4.61538462,25.9615385 L4.61538462,12.1153846 C4.61538462,11.7969231 4.87384615,11.5384615 5.19230769,11.5384615 L9.80769231,11.5384615 C10.1261538,11.5384615 10.3846154,11.7969231 10.3846154,12.1153846 L10.3846154,25.9615385 Z M27.6923077,0 L2.30769231,0 C1.035,0 0,1.035 0,2.30769231 L0,27.6923077 C0,28.965 1.035,30 2.30769231,30 L27.6923077,30 C28.965,30 30,28.965 30,27.6923077 L30,2.30769231 C30,1.035 28.965,0 27.6923077,0 Z"/>
</svg>
