<svg xmlns="http://www.w3.org/2000/svg" viewBox="0 0 26 26">
  <path fill-rule="evenodd" d="M28,27.3461538 C28,27.7070769 27.7070769,28 27.3461538,28 L22.1153846,28 C21.7544615,28 21.4615385,27.7070769 21.4615385,27.3461538 L21.4615385,18.1923077 C21.4615385,17.1108462 20.5814615,16.2307692 19.5,16.2307692 C18.4185385,16.2307692 17.5384615,17.1108462 17.5384615,18.1923077 L17.5384615,27.3461538 C17.5384615,27.7070769 17.2455385,28 16.8846154,28 L11.6538462,28 C11.2929231,28 11,27.7070769 11,27.3461538 L11,11.6538462 C11,11.2929231 11.2929231,11 11.6538462,11 L16.8846154,11 C17.2455385,11 17.5384615,11.2929231 17.5384615,11.6538462 L17.5384615,12.3325385 C18.6617692,11.4733846 20.0296154,11 21.4615385,11 C25.0668462,11 28,13.9331538 28,17.5384615 L28,27.3461538 Z M5.5,9 C3.5708,9 2,7.4292 2,5.5 C2,3.5708 3.5708,2 5.5,2 C7.4292,2 9,3.5708 9,5.5 C9,7.4292 7.4292,9 5.5,9 Z M9,27.3461538 C9,27.7070769 8.6864,28 8.3,28 L2.7,28 C2.3136,28 2,27.7070769 2,27.3461538 L2,11.6538462 C2,11.2929231 2.3136,11 2.7,11 L8.3,11 C8.6864,11 9,11.2929231 9,11.6538462 L9,27.3461538 Z" transform="translate(-2 -2)"/>
</svg>
